# xmcd
#
# Track frame offsets:
#	182
#	13990
#	31082
#	52040
#	70642
#	86892
#	111855
#	125360
#	142537
#	161250
#	182360
#	194692
#	212437
#	228332
#
# Disc length: 3301 seconds
#
# Revision: 1
# Processed by: cddbd v1.5.1PL2 Copyright (c) Steve Scherf et al.
# Submitted via: EasyCDDAExtractor 7.0.6.1
#
DISCID=b20ce30e
DTITLE=Tracy Elsdon - Relatively Speaking
DYEAR=1993
DGENRE=Country
TTITLE0=Half The Moon
TTITLE1=Relatively Speaking
TTITLE2=Only A Woman's Heart
TTITLE3=Somewhere Under The Sun
TTITLE4=Heaven
TTITLE5=You Were My Lover
TTITLE6=Lonely Street
TTITLE7=One Careful Owner
TTITLE8=Just When I Needed You Most
TTITLE9=Water Is Wide
TTITLE10=Dream A Little Dream Of Me
TTITLE11=Loving Arms
TTITLE12=Golden Years
TTITLE13=I'll Walk Beside You (with Dominic Kirwan)
EXTD=
EXTT0=
EXTT1=
EXTT2=
EXTT3=
EXTT4=
EXTT5=
EXTT6=
EXTT7=
EXTT8=
EXTT9=
EXTT10=
EXTT11=
EXTT12=
EXTT13=
PLAYORDER=
